<?xml version="1.0" encoding="UTF-8" standalone="no"?>
<!DOCTYPE svg PUBLIC "-//W3C//DTD SVG 1.1//EN"
 "http://www.w3.org/Graphics/SVG/1.1/DTD/svg11.dtd">
<!-- Generated by graphviz version 2.42.4 (0)
 -->
<!-- Title: G Pages: 1 -->
<svg width="1198pt" height="104pt"
 viewBox="0.00 0.00 1198.40 104.40" xmlns="http://www.w3.org/2000/svg" xmlns:xlink="http://www.w3.org/1999/xlink">
<g id="graph0" class="graph" transform="scale(1 1) rotate(0) translate(25.2 79.2)">
<title>G</title>
<polygon fill="#ffffff" stroke="transparent" points="-25.2,25.2 -25.2,-79.2 1173.2,-79.2 1173.2,25.2 -25.2,25.2"/>
<!-- submit -->
<g id="node1" class="node">
<title>submit</title>
<path fill="#dbeafe" stroke="#60a5fa" stroke-width="1.5" d="M74,-48C74,-48 12,-48 12,-48 6,-48 0,-42 0,-36 0,-36 0,-18 0,-18 0,-12 6,-6 12,-6 12,-6 74,-6 74,-6 80,-6 86,-12 86,-18 86,-18 86,-36 86,-36 86,-42 80,-48 74,-48"/>
<text text-anchor="middle" x="43" y="-30.6" font-family="Arial" font-size="10.50" fill="#0f172a">01</text>
<text text-anchor="middle" x="43" y="-18.6" font-family="Arial" font-size="10.50" fill="#0f172a">Submit URL</text>
</g>
<!-- validate -->
<g id="node2" class="node">
<title>validate</title>
<path fill="#e0e7ff" stroke="#818cf8" stroke-width="1.5" d="M216,-48C216,-48 148,-48 148,-48 142,-48 136,-42 136,-36 136,-36 136,-18 136,-18 136,-12 142,-6 148,-6 148,-6 216,-6 216,-6 222,-6 228,-12 228,-18 228,-18 228,-36 228,-36 228,-42 222,-48 216,-48"/>
<text text-anchor="middle" x="182" y="-30.6" font-family="Arial" font-size="10.50" fill="#0f172a">02</text>
<text text-anchor="middle" x="182" y="-18.6" font-family="Arial" font-size="10.50" fill="#0f172a">Validate input</text>
</g>
<!-- submit&#45;&gt;validate -->
<g id="edge1" class="edge">
<title>submit&#45;&gt;validate</title>
<path fill="none" stroke="#64748b" stroke-width="1.7" d="M86.22,-27C99.61,-27 114.58,-27 128.6,-27"/>
<polygon fill="#64748b" stroke="#64748b" stroke-width="1.7" points="128.63,-29.52 135.83,-27 128.63,-24.48 128.63,-29.52"/>
</g>
<!-- init -->
<g id="node3" class="node">
<title>init</title>
<path fill="#ede9fe" stroke="#a78bfa" stroke-width="1.5" d="M367,-48C367,-48 290,-48 290,-48 284,-48 278,-42 278,-36 278,-36 278,-18 278,-18 278,-12 284,-6 290,-6 290,-6 367,-6 367,-6 373,-6 379,-12 379,-18 379,-18 379,-36 379,-36 379,-42 373,-48 367,-48"/>
<text text-anchor="middle" x="328.5" y="-30.6" font-family="Arial" font-size="10.50" fill="#0f172a">03</text>
<text text-anchor="middle" x="328.5" y="-18.6" font-family="Arial" font-size="10.50" fill="#0f172a">Create audit ID</text>
</g>
<!-- validate&#45;&gt;init -->
<g id="edge2" class="edge">
<title>validate&#45;&gt;init</title>
<path fill="none" stroke="#64748b" stroke-width="1.7" d="M228.32,-27C241.72,-27 256.55,-27 270.57,-27"/>
<polygon fill="#64748b" stroke="#64748b" stroke-width="1.7" points="270.62,-29.52 277.82,-27 270.62,-24.48 270.62,-29.52"/>
</g>
<!-- execute -->
<g id="node4" class="node">
<title>execute</title>
<path fill="#fce7f3" stroke="#f472b6" stroke-width="1.5" d="M526,-54C526,-54 441,-54 441,-54 435,-54 429,-48 429,-42 429,-42 429,-12 429,-12 429,-6 435,0 441,0 441,0 526,0 526,0 532,0 538,-6 538,-12 538,-12 538,-42 538,-42 538,-48 532,-54 526,-54"/>
<text text-anchor="middle" x="483.5" y="-36.6" font-family="Arial" font-size="10.50" fill="#0f172a">04</text>
<text text-anchor="middle" x="483.5" y="-24.6" font-family="Arial" font-size="10.50" fill="#0f172a">Run Claude /geo</text>
<text text-anchor="middle" x="483.5" y="-12.6" font-family="Arial" font-size="10.50" fill="#0f172a">or demo path</text>
</g>
<!-- init&#45;&gt;execute -->
<g id="edge3" class="edge">
<title>init&#45;&gt;execute</title>
<path fill="none" stroke="#64748b" stroke-width="1.7" d="M379.17,-27C392.7,-27 407.5,-27 421.57,-27"/>
<polygon fill="#64748b" stroke="#64748b" stroke-width="1.7" points="421.65,-29.52 428.85,-27 421.65,-24.48 421.65,-29.52"/>
</g>
<!-- discover -->
<g id="node5" class="node">
<title>discover</title>
<path fill="#ffedd5" stroke="#fb923c" stroke-width="1.5" d="M677,-48C677,-48 600,-48 600,-48 594,-48 588,-42 588,-36 588,-36 588,-18 588,-18 588,-12 594,-6 600,-6 600,-6 677,-6 677,-6 683,-6 689,-12 689,-18 689,-18 689,-36 689,-36 689,-42 683,-48 677,-48"/>
<text text-anchor="middle" x="638.5" y="-30.6" font-family="Arial" font-size="10.50" fill="#0f172a">05</text>
<text text-anchor="middle" x="638.5" y="-18.6" font-family="Arial" font-size="10.50" fill="#0f172a">Discover report</text>
</g>
<!-- execute&#45;&gt;discover -->
<g id="edge4" class="edge">
<title>execute&#45;&gt;discover</title>
<path fill="none" stroke="#64748b" stroke-width="1.7" d="M538.01,-27C551.81,-27 566.7,-27 580.66,-27"/>
<polygon fill="#64748b" stroke="#64748b" stroke-width="1.7" points="580.66,-29.52 587.86,-27 580.66,-24.48 580.66,-29.52"/>
</g>
<!-- parse -->
<g id="node6" class="node">
<title>parse</title>
<path fill="#fef3c7" stroke="#fbbf24" stroke-width="1.5" d="M818,-54C818,-54 751,-54 751,-54 745,-54 739,-48 739,-42 739,-42 739,-12 739,-12 739,-6 745,0 751,0 751,0 818,0 818,0 824,0 830,-6 830,-12 830,-12 830,-42 830,-42 830,-48 824,-54 818,-54"/>
<text text-anchor="middle" x="784.5" y="-36.6" font-family="Arial" font-size="10.50" fill="#0f172a">06</text>
<text text-anchor="middle" x="784.5" y="-24.6" font-family="Arial" font-size="10.50" fill="#0f172a">Parse scores</text>
<text text-anchor="middle" x="784.5" y="-12.6" font-family="Arial" font-size="10.50" fill="#0f172a">and findings</text>
</g>
<!-- discover&#45;&gt;parse -->
<g id="edge5" class="edge">
<title>discover&#45;&gt;parse</title>
<path fill="none" stroke="#64748b" stroke-width="1.7" d="M689.06,-27C702.65,-27 717.43,-27 731.17,-27"/>
<polygon fill="#64748b" stroke="#64748b" stroke-width="1.7" points="731.48,-29.52 738.68,-27 731.48,-24.48 731.48,-29.52"/>
</g>
<!-- persist -->
<g id="node7" class="node">
<title>persist</title>
<path fill="#d1fae5" stroke="#34d399" stroke-width="1.5" d="M964,-54C964,-54 892,-54 892,-54 886,-54 880,-48 880,-42 880,-42 880,-12 880,-12 880,-6 886,0 892,0 892,0 964,0 964,0 970,0 976,-6 976,-12 976,-12 976,-42 976,-42 976,-48 970,-54 964,-54"/>
<text text-anchor="middle" x="928" y="-36.6" font-family="Arial" font-size="10.50" fill="#0f172a">07</text>
<text text-anchor="middle" x="928" y="-24.6" font-family="Arial" font-size="10.50" fill="#0f172a">Persist SQLite</text>
<text text-anchor="middle" x="928" y="-12.6" font-family="Arial" font-size="10.50" fill="#0f172a">and JSON</text>
</g>
<!-- parse&#45;&gt;persist -->
<g id="edge6" class="edge">
<title>parse&#45;&gt;persist</title>
<path fill="none" stroke="#64748b" stroke-width="1.7" d="M830.27,-27C843.52,-27 858.19,-27 872.01,-27"/>
<polygon fill="#64748b" stroke="#64748b" stroke-width="1.7" points="872.39,-29.52 879.59,-27 872.39,-24.48 872.39,-29.52"/>
</g>
<!-- present -->
<g id="node8" class="node">
<title>present</title>
<path fill="#ccfbf1" stroke="#2dd4bf" stroke-width="1.5" d="M1136,-54C1136,-54 1038,-54 1038,-54 1032,-54 1026,-48 1026,-42 1026,-42 1026,-12 1026,-12 1026,-6 1032,0 1038,0 1038,0 1136,0 1136,0 1142,0 1148,-6 1148,-12 1148,-12 1148,-42 1148,-42 1148,-48 1142,-54 1136,-54"/>
<text text-anchor="middle" x="1087" y="-36.6" font-family="Arial" font-size="10.50" fill="#0f172a">08</text>
<text text-anchor="middle" x="1087" y="-24.6" font-family="Arial" font-size="10.50" fill="#0f172a">Present dashboard,</text>
<text text-anchor="middle" x="1087" y="-12.6" font-family="Arial" font-size="10.50" fill="#0f172a">API and CLI</text>
</g>
<!-- persist&#45;&gt;present -->
<g id="edge7" class="edge">
<title>persist&#45;&gt;present</title>
<path fill="none" stroke="#64748b" stroke-width="1.7" d="M976.11,-27C989.41,-27 1004.16,-27 1018.42,-27"/>
<polygon fill="#64748b" stroke="#64748b" stroke-width="1.7" points="1018.62,-29.52 1025.82,-27 1018.62,-24.48 1018.62,-29.52"/>
</g>
</g>
</svg>
