<?xml version="1.0" encoding="UTF-8" standalone="no"?>
<!DOCTYPE svg PUBLIC "-//W3C//DTD SVG 1.1//EN"
 "http://www.w3.org/Graphics/SVG/1.1/DTD/svg11.dtd">
<!-- Generated by graphviz version 2.42.4 (0)
 -->
<!-- Title: G Pages: 1 -->
<svg width="1270pt" height="162pt"
 viewBox="0.00 0.00 1270.11 162.40" xmlns="http://www.w3.org/2000/svg" xmlns:xlink="http://www.w3.org/1999/xlink">
<g id="graph0" class="graph" transform="scale(1 1) rotate(0) translate(25.2 137.2)">
<title>G</title>
<polygon fill="#ffffff" stroke="transparent" points="-25.2,25.2 -25.2,-137.2 1244.91,-137.2 1244.91,25.2 -25.2,25.2"/>
<!-- trigger -->
<g id="node1" class="node">
<title>trigger</title>
<defs>
<linearGradient id="l_0" gradientUnits="userSpaceOnUse" x1="50.5" y1="-36" x2="50.5" y2="-80" >
<stop offset="0" style="stop-color:white;stop-opacity:1.;"/>
<stop offset="1" style="stop-color:#dbeafe;stop-opacity:1.;"/>
</linearGradient>
</defs>
<path fill="url(#l_0)" stroke="#60a5fa" stroke-width="1.5" d="M89,-80C89,-80 12,-80 12,-80 6,-80 0,-74 0,-68 0,-68 0,-48 0,-48 0,-42 6,-36 12,-36 12,-36 89,-36 89,-36 95,-36 101,-42 101,-48 101,-48 101,-68 101,-68 101,-74 95,-80 89,-80"/>
<text text-anchor="middle" x="50.5" y="-61.6" font-family="Arial" font-size="10.50" fill="#0f172a">Git push</text>
<text text-anchor="middle" x="50.5" y="-49.6" font-family="Arial" font-size="10.50" fill="#0f172a">or pull request</text>
</g>
<!-- setup -->
<g id="node2" class="node">
<title>setup</title>
<defs>
<linearGradient id="l_1" gradientUnits="userSpaceOnUse" x1="211.5" y1="-36" x2="211.5" y2="-80" >
<stop offset="0" style="stop-color:white;stop-opacity:1.;"/>
<stop offset="1" style="stop-color:#ede9fe;stop-opacity:1.;"/>
</linearGradient>
</defs>
<path fill="url(#l_1)" stroke="#a78bfa" stroke-width="1.5" d="M261,-80C261,-80 162,-80 162,-80 156,-80 150,-74 150,-68 150,-68 150,-48 150,-48 150,-42 156,-36 162,-36 162,-36 261,-36 261,-36 267,-36 273,-42 273,-48 273,-48 273,-68 273,-68 273,-74 267,-80 261,-80"/>
<text text-anchor="middle" x="211.5" y="-61.6" font-family="Arial" font-size="10.50" fill="#0f172a">Matrix setup</text>
<text text-anchor="middle" x="211.5" y="-49.6" font-family="Arial" font-size="10.50" fill="#0f172a">Python 3.10 + 3.12</text>
</g>
<!-- trigger&#45;&gt;setup -->
<g id="edge1" class="edge">
<title>trigger&#45;&gt;setup</title>
<path fill="none" stroke="#64748b" stroke-width="1.7" d="M101.44,-58C101.44,-58 142.69,-58 142.69,-58"/>
<polygon fill="#64748b" stroke="#64748b" stroke-width="1.7" points="142.69,-60.52 149.89,-58 142.69,-55.48 142.69,-60.52"/>
</g>
<!-- install -->
<g id="node3" class="node">
<title>install</title>
<defs>
<linearGradient id="l_2" gradientUnits="userSpaceOnUse" x1="392.5" y1="-36" x2="392.5" y2="-80" >
<stop offset="0" style="stop-color:white;stop-opacity:1.;"/>
<stop offset="1" style="stop-color:#fce7f3;stop-opacity:1.;"/>
</linearGradient>
</defs>
<path fill="url(#l_2)" stroke="#f472b6" stroke-width="1.5" d="M451,-80C451,-80 334,-80 334,-80 328,-80 322,-74 322,-68 322,-68 322,-48 322,-48 322,-42 328,-36 334,-36 334,-36 451,-36 451,-36 457,-36 463,-42 463,-48 463,-48 463,-68 463,-68 463,-74 457,-80 451,-80"/>
<text text-anchor="middle" x="392.5" y="-61.6" font-family="Arial" font-size="10.50" fill="#0f172a">Install project</text>
<text text-anchor="middle" x="392.5" y="-49.6" font-family="Arial" font-size="10.50" fill="#0f172a">and dev dependencies</text>
</g>
<!-- setup&#45;&gt;install -->
<g id="edge2" class="edge">
<title>setup&#45;&gt;install</title>
<path fill="none" stroke="#64748b" stroke-width="1.7" d="M273.03,-58C273.03,-58 314.59,-58 314.59,-58"/>
<polygon fill="#64748b" stroke="#64748b" stroke-width="1.7" points="314.59,-60.52 321.79,-58 314.59,-55.48 314.59,-60.52"/>
</g>
<!-- lint -->
<g id="node4" class="node">
<title>lint</title>
<defs>
<linearGradient id="l_3" gradientUnits="userSpaceOnUse" x1="576.5" y1="-36" x2="576.5" y2="-80" >
<stop offset="0" style="stop-color:white;stop-opacity:1.;"/>
<stop offset="1" style="stop-color:#ffedd5;stop-opacity:1.;"/>
</linearGradient>
</defs>
<path fill="url(#l_3)" stroke="#fb923c" stroke-width="1.5" d="M629,-80C629,-80 524,-80 524,-80 518,-80 512,-74 512,-68 512,-68 512,-48 512,-48 512,-42 518,-36 524,-36 524,-36 629,-36 629,-36 635,-36 641,-42 641,-48 641,-48 641,-68 641,-68 641,-74 635,-80 629,-80"/>
<text text-anchor="middle" x="576.5" y="-61.6" font-family="Arial" font-size="10.50" fill="#0f172a">Ruff lint</text>
<text text-anchor="middle" x="576.5" y="-49.6" font-family="Arial" font-size="10.50" fill="#0f172a">Code&#45;quality checks</text>
</g>
<!-- install&#45;&gt;lint -->
<g id="edge3" class="edge">
<title>install&#45;&gt;lint</title>
<path fill="none" stroke="#64748b" stroke-width="1.7" d="M463.11,-58C463.11,-58 504.61,-58 504.61,-58"/>
<polygon fill="#64748b" stroke="#64748b" stroke-width="1.7" points="504.61,-60.52 511.81,-58 504.61,-55.48 504.61,-60.52"/>
</g>
<!-- tests -->
<g id="node5" class="node">
<title>tests</title>
<defs>
<linearGradient id="l_4" gradientUnits="userSpaceOnUse" x1="755.5" y1="-36" x2="755.5" y2="-80" >
<stop offset="0" style="stop-color:white;stop-opacity:1.;"/>
<stop offset="1" style="stop-color:#fef3c7;stop-opacity:1.;"/>
</linearGradient>
</defs>
<path fill="url(#l_4)" stroke="#fbbf24" stroke-width="1.5" d="M809,-80C809,-80 702,-80 702,-80 696,-80 690,-74 690,-68 690,-68 690,-48 690,-48 690,-42 696,-36 702,-36 702,-36 809,-36 809,-36 815,-36 821,-42 821,-48 821,-48 821,-68 821,-68 821,-74 815,-80 809,-80"/>
<text text-anchor="middle" x="755.5" y="-61.6" font-family="Arial" font-size="10.50" fill="#0f172a">pytest suite</text>
<text text-anchor="middle" x="755.5" y="-49.6" font-family="Arial" font-size="10.50" fill="#0f172a">Parser • API • runner</text>
</g>
<!-- lint&#45;&gt;tests -->
<g id="edge4" class="edge">
<title>lint&#45;&gt;tests</title>
<path fill="none" stroke="#64748b" stroke-width="1.7" d="M641.12,-58C641.12,-58 682.57,-58 682.57,-58"/>
<polygon fill="#64748b" stroke="#64748b" stroke-width="1.7" points="682.57,-60.52 689.77,-58 682.57,-55.48 682.57,-60.52"/>
</g>
<!-- decision -->
<g id="node6" class="node">
<title>decision</title>
<path fill="#f8fafc" stroke="#94a3b8" stroke-width="1.5" d="M935.8,-85.82C935.8,-85.82 881.2,-62.68 881.2,-62.68 875.67,-60.34 875.67,-55.66 881.2,-53.32 881.2,-53.32 935.8,-30.18 935.8,-30.18 941.33,-27.84 952.38,-27.84 957.9,-30.18 957.9,-30.18 1012.51,-53.32 1012.51,-53.32 1018.04,-55.66 1018.04,-60.34 1012.51,-62.68 1012.51,-62.68 957.9,-85.82 957.9,-85.82 952.38,-88.16 941.33,-88.16 935.8,-85.82"/>
<text text-anchor="middle" x="946.85" y="-61.6" font-family="Arial" font-size="10.50" fill="#0f172a">All checks</text>
<text text-anchor="middle" x="946.85" y="-49.6" font-family="Arial" font-size="10.50" fill="#0f172a">pass?</text>
</g>
<!-- tests&#45;&gt;decision -->
<g id="edge5" class="edge">
<title>tests&#45;&gt;decision</title>
<path fill="none" stroke="#64748b" stroke-width="1.7" d="M821.09,-58C821.09,-58 862.61,-58 862.61,-58"/>
<polygon fill="#64748b" stroke="#64748b" stroke-width="1.7" points="862.61,-60.52 869.81,-58 862.61,-55.48 862.61,-60.52"/>
</g>
<!-- pass -->
<g id="node7" class="node">
<title>pass</title>
<defs>
<linearGradient id="l_5" gradientUnits="userSpaceOnUse" x1="1162.71" y1="-76" x2="1162.71" y2="-112" >
<stop offset="0" style="stop-color:white;stop-opacity:1.;"/>
<stop offset="1" style="stop-color:#d1fae5;stop-opacity:1.;"/>
</linearGradient>
</defs>
<path fill="url(#l_5)" stroke="#34d399" stroke-width="1.5" d="M1197.21,-112C1197.21,-112 1128.21,-112 1128.21,-112 1122.21,-112 1116.21,-106 1116.21,-100 1116.21,-100 1116.21,-88 1116.21,-88 1116.21,-82 1122.21,-76 1128.21,-76 1128.21,-76 1197.21,-76 1197.21,-76 1203.21,-76 1209.21,-82 1209.21,-88 1209.21,-88 1209.21,-100 1209.21,-100 1209.21,-106 1203.21,-112 1197.21,-112"/>
<text text-anchor="middle" x="1162.71" y="-91.6" font-family="Arial" font-size="10.50" fill="#0f172a">Build verified</text>
</g>
<!-- decision&#45;&gt;pass -->
<g id="edge6" class="edge">
<title>decision&#45;&gt;pass</title>
<path fill="none" stroke="#10b981" stroke-width="1.7" d="M964.15,-83.25C964.15,-83.25 1108.85,-83.25 1108.85,-83.25"/>
<polygon fill="#10b981" stroke="#10b981" stroke-width="1.7" points="1108.85,-85.77 1116.05,-83.25 1108.85,-80.73 1108.85,-85.77"/>
<text text-anchor="middle" x="1064.71" y="-97.8" font-family="Times,serif" font-size="14.00" fill="#047857"> yes </text>
</g>
<!-- fail -->
<g id="node8" class="node">
<title>fail</title>
<defs>
<linearGradient id="l_6" gradientUnits="userSpaceOnUse" x1="1162.71" y1="0" x2="1162.71" y2="-44" >
<stop offset="0" style="stop-color:white;stop-opacity:1.;"/>
<stop offset="1" style="stop-color:#fee2e2;stop-opacity:1.;"/>
</linearGradient>
</defs>
<path fill="url(#l_6)" stroke="#f87171" stroke-width="1.5" d="M1207.71,-44C1207.71,-44 1117.71,-44 1117.71,-44 1111.71,-44 1105.71,-38 1105.71,-32 1105.71,-32 1105.71,-12 1105.71,-12 1105.71,-6 1111.71,0 1117.71,0 1117.71,0 1207.71,0 1207.71,0 1213.71,0 1219.71,-6 1219.71,-12 1219.71,-12 1219.71,-32 1219.71,-32 1219.71,-38 1213.71,-44 1207.71,-44"/>
<text text-anchor="middle" x="1162.71" y="-25.6" font-family="Arial" font-size="10.50" fill="#0f172a">Workflow failed</text>
<text text-anchor="middle" x="1162.71" y="-13.6" font-family="Arial" font-size="10.50" fill="#0f172a">Fix before merge</text>
</g>
<!-- decision&#45;&gt;fail -->
<g id="edge7" class="edge">
<title>decision&#45;&gt;fail</title>
<path fill="none" stroke="#ef4444" stroke-width="1.7" d="M968.74,-34.75C968.74,-34.75 1098.46,-34.75 1098.46,-34.75"/>
<polygon fill="#ef4444" stroke="#ef4444" stroke-width="1.7" points="1098.46,-37.27 1105.66,-34.75 1098.46,-32.23 1098.46,-37.27"/>
<text text-anchor="middle" x="1064.71" y="-25.8" font-family="Times,serif" font-size="14.00" fill="#b91c1c"> no </text>
</g>
</g>
</svg>
