<svg xmlns="http://www.w3.org/2000/svg" width="1200" height="680" viewBox="0 0 1200 680" role="img" aria-labelledby="title desc">
  <title id="title">Generative AI Search Optimizer dashboard preview</title>
  <desc id="desc">Illustrative dashboard showing audit controls, score metrics, category bars, and findings.</desc>
  <rect width="1200" height="680" fill="#f6f7fb"/>
  <rect x="0" y="0" width="260" height="680" fill="#ffffff" stroke="#d8dbe5"/>
  <text x="28" y="54" font-family="Arial, sans-serif" font-size="24" font-weight="700" fill="#1f2937">New audit</text>
  <text x="28" y="95" font-family="Arial, sans-serif" font-size="14" fill="#4b5563">Website URL</text>
  <rect x="28" y="108" rx="8" width="204" height="42" fill="#f9fafb" stroke="#cbd5e1"/>
  <text x="42" y="135" font-family="Arial, sans-serif" font-size="13" fill="#64748b">https://example.com</text>
  <text x="28" y="184" font-family="Arial, sans-serif" font-size="14" fill="#4b5563">Demo mode</text>
  <rect x="168" y="165" rx="12" width="54" height="26" fill="#16a34a"/>
  <circle cx="209" cy="178" r="10" fill="#ffffff"/>
  <rect x="28" y="222" rx="8" width="204" height="44" fill="#2563eb"/>
  <text x="91" y="250" font-family="Arial, sans-serif" font-size="15" font-weight="700" fill="#ffffff">Run audit</text>

  <text x="300" y="54" font-family="Arial, sans-serif" font-size="30" font-weight="700" fill="#111827">Generative AI Search Optimizer</text>
  <text x="300" y="82" font-family="Arial, sans-serif" font-size="14" fill="#64748b">GEO audit history, scoring, findings, and report traceability</text>

  <g>
    <rect x="300" y="112" rx="12" width="195" height="100" fill="#ffffff" stroke="#e2e8f0"/>
    <text x="320" y="142" font-family="Arial, sans-serif" font-size="13" fill="#64748b">GEO score</text>
    <text x="320" y="188" font-family="Arial, sans-serif" font-size="38" font-weight="700" fill="#111827">72</text>
    <rect x="515" y="112" rx="12" width="195" height="100" fill="#ffffff" stroke="#e2e8f0"/>
    <text x="535" y="142" font-family="Arial, sans-serif" font-size="13" fill="#64748b">Rating</text>
    <text x="535" y="185" font-family="Arial, sans-serif" font-size="30" font-weight="700" fill="#111827">Fair</text>
    <rect x="730" y="112" rx="12" width="195" height="100" fill="#ffffff" stroke="#e2e8f0"/>
    <text x="750" y="142" font-family="Arial, sans-serif" font-size="13" fill="#64748b">Status</text>
    <text x="750" y="185" font-family="Arial, sans-serif" font-size="26" font-weight="700" fill="#15803d">Completed</text>
    <rect x="945" y="112" rx="12" width="215" height="100" fill="#ffffff" stroke="#e2e8f0"/>
    <text x="965" y="142" font-family="Arial, sans-serif" font-size="13" fill="#64748b">Priority findings</text>
    <text x="965" y="188" font-family="Arial, sans-serif" font-size="38" font-weight="700" fill="#111827">5</text>
  </g>

  <rect x="300" y="238" rx="12" width="420" height="390" fill="#ffffff" stroke="#e2e8f0"/>
  <text x="322" y="272" font-family="Arial, sans-serif" font-size="18" font-weight="700" fill="#111827">Category scores</text>
  <g font-family="Arial, sans-serif" font-size="12" fill="#475569">
    <text x="322" y="318">Technical GEO</text><rect x="440" y="303" width="235" height="18" rx="7" fill="#dbeafe"/><rect x="440" y="303" width="202" height="18" rx="7" fill="#3b82f6"/><text x="681" y="317">86</text>
    <text x="322" y="365">Content E-E-A-T</text><rect x="440" y="350" width="235" height="18" rx="7" fill="#dbeafe"/><rect x="440" y="350" width="179" height="18" rx="7" fill="#3b82f6"/><text x="681" y="364">76</text>
    <text x="322" y="412">Structured Data</text><rect x="440" y="397" width="235" height="18" rx="7" fill="#dbeafe"/><rect x="440" y="397" width="165" height="18" rx="7" fill="#3b82f6"/><text x="681" y="411">70</text>
    <text x="322" y="459">Platform Readiness</text><rect x="440" y="444" width="235" height="18" rx="7" fill="#dbeafe"/><rect x="440" y="444" width="155" height="18" rx="7" fill="#3b82f6"/><text x="681" y="458">66</text>
    <text x="322" y="506">AI Citability</text><rect x="440" y="491" width="235" height="18" rx="7" fill="#dbeafe"/><rect x="440" y="491" width="150" height="18" rx="7" fill="#3b82f6"/><text x="681" y="505">64</text>
    <text x="322" y="553">Brand Authority</text><rect x="440" y="538" width="235" height="18" rx="7" fill="#dbeafe"/><rect x="440" y="538" width="136" height="18" rx="7" fill="#3b82f6"/><text x="681" y="552">58</text>
  </g>

  <rect x="744" y="238" rx="12" width="416" height="390" fill="#ffffff" stroke="#e2e8f0"/>
  <text x="766" y="272" font-family="Arial, sans-serif" font-size="18" font-weight="700" fill="#111827">Actionable findings</text>
  <g font-family="Arial, sans-serif">
    <rect x="766" y="298" rx="8" width="370" height="76" fill="#fff7ed" stroke="#fed7aa"/>
    <text x="782" y="322" font-size="11" font-weight="700" fill="#c2410c">HIGH</text>
    <text x="782" y="346" font-size="14" font-weight="700" fill="#1f2937">Add answer-first content blocks</text>
    <text x="782" y="365" font-size="12" fill="#64748b">Rewrite priority pages with concise definitions.</text>
    <rect x="766" y="390" rx="8" width="370" height="76" fill="#fff7ed" stroke="#fed7aa"/>
    <text x="782" y="414" font-size="11" font-weight="700" fill="#c2410c">HIGH</text>
    <text x="782" y="438" font-size="14" font-weight="700" fill="#1f2937">Strengthen organization entities</text>
    <text x="782" y="457" font-size="12" fill="#64748b">Connect Organization, Person, and Article schema.</text>
    <rect x="766" y="482" rx="8" width="370" height="76" fill="#eff6ff" stroke="#bfdbfe"/>
    <text x="782" y="506" font-size="11" font-weight="700" fill="#1d4ed8">MEDIUM</text>
    <text x="782" y="530" font-size="14" font-weight="700" fill="#1f2937">Clarify AI crawler policy</text>
    <text x="782" y="549" font-size="12" fill="#64748b">Review robots.txt and document the chosen policy.</text>
  </g>
</svg>
