<?xml version="1.0" encoding="UTF-8" standalone="no"?>
<!DOCTYPE svg PUBLIC "-//W3C//DTD SVG 1.1//EN"
 "http://www.w3.org/Graphics/SVG/1.1/DTD/svg11.dtd">
<!-- Generated by graphviz version 2.42.4 (0)
 -->
<!-- Title: G Pages: 1 -->
<svg width="757pt" height="802pt"
 viewBox="0.00 0.00 757.40 802.40" xmlns="http://www.w3.org/2000/svg" xmlns:xlink="http://www.w3.org/1999/xlink">
<g id="graph0" class="graph" transform="scale(1 1) rotate(0) translate(25.2 777.2)">
<title>G</title>
<polygon fill="#ffffff" stroke="transparent" points="-25.2,25.2 -25.2,-777.2 732.2,-777.2 732.2,25.2 -25.2,25.2"/>
<g id="clust1" class="cluster">
<title>cluster_input</title>
<path fill="#eff6ff" stroke="#93c5fd" stroke-width="1.7" d="M20,-662C20,-662 510,-662 510,-662 516,-662 522,-668 522,-674 522,-674 522,-732 522,-732 522,-738 516,-744 510,-744 510,-744 20,-744 20,-744 14,-744 8,-738 8,-732 8,-732 8,-674 8,-674 8,-668 14,-662 20,-662"/>
<text text-anchor="middle" x="265" y="-729.6" font-family="Arial Bold" font-size="13.00" fill="#1d4ed8">1 &#160;INPUT</text>
</g>
<g id="clust3" class="cluster">
<title>cluster_process</title>
<path fill="#f5f3ff" stroke="#c4b5fd" stroke-width="1.7" d="M166,-98C166,-98 460,-98 460,-98 466,-98 472,-104 472,-110 472,-110 472,-642 472,-642 472,-648 466,-654 460,-654 460,-654 166,-654 166,-654 160,-654 154,-648 154,-642 154,-642 154,-110 154,-110 154,-104 160,-98 166,-98"/>
<text text-anchor="middle" x="313" y="-639.6" font-family="Arial Bold" font-size="13.00" fill="#7c3aed">2 &#160;PROCESS</text>
</g>
<g id="clust5" class="cluster">
<title>cluster_output</title>
<path fill="#ecfdf5" stroke="#6ee7b7" stroke-width="1.7" d="M59,-8C59,-8 687,-8 687,-8 693,-8 699,-14 699,-20 699,-20 699,-78 699,-78 699,-84 693,-90 687,-90 687,-90 59,-90 59,-90 53,-90 47,-84 47,-78 47,-78 47,-20 47,-20 47,-14 53,-8 59,-8"/>
<text text-anchor="middle" x="373" y="-75.6" font-family="Arial Bold" font-size="13.00" fill="#047857">3 &#160;OUTPUT</text>
</g>
<!-- url -->
<g id="node1" class="node">
<title>url</title>
<defs>
<linearGradient id="l_0" gradientUnits="userSpaceOnUse" x1="81" y1="-670" x2="81" y2="-714" >
<stop offset="0" style="stop-color:white;stop-opacity:1.;"/>
<stop offset="1" style="stop-color:#dbeafe;stop-opacity:1.;"/>
</linearGradient>
</defs>
<path fill="url(#l_0)" stroke="#60a5fa" stroke-width="1.5" d="M133.5,-714C133.5,-714 28.5,-714 28.5,-714 22.5,-714 16.5,-708 16.5,-702 16.5,-702 16.5,-682 16.5,-682 16.5,-676 22.5,-670 28.5,-670 28.5,-670 133.5,-670 133.5,-670 139.5,-670 145.5,-676 145.5,-682 145.5,-682 145.5,-702 145.5,-702 145.5,-708 139.5,-714 133.5,-714"/>
<text text-anchor="middle" x="81" y="-695.2" font-family="Arial" font-size="11.00" fill="#0f172a">Website URL</text>
<text text-anchor="middle" x="81" y="-683.2" font-family="Arial" font-size="11.00" fill="#0f172a">https://example.com</text>
</g>
<!-- mode -->
<g id="node2" class="node">
<title>mode</title>
<defs>
<linearGradient id="l_1" gradientUnits="userSpaceOnUse" x1="245" y1="-670" x2="245" y2="-714" >
<stop offset="0" style="stop-color:white;stop-opacity:1.;"/>
<stop offset="1" style="stop-color:#dbeafe;stop-opacity:1.;"/>
</linearGradient>
</defs>
<path fill="url(#l_1)" stroke="#60a5fa" stroke-width="1.5" d="M302,-714C302,-714 188,-714 188,-714 182,-714 176,-708 176,-702 176,-702 176,-682 176,-682 176,-676 182,-670 188,-670 188,-670 302,-670 302,-670 308,-670 314,-676 314,-682 314,-682 314,-702 314,-702 314,-708 308,-714 302,-714"/>
<text text-anchor="middle" x="245" y="-695.2" font-family="Arial" font-size="11.00" fill="#0f172a">Audit mode</text>
<text text-anchor="middle" x="245" y="-683.2" font-family="Arial" font-size="11.00" fill="#0f172a">full • schema • content</text>
</g>
<!-- url&#45;&gt;mode -->
<!-- validate -->
<g id="node4" class="node">
<title>validate</title>
<defs>
<linearGradient id="l_2" gradientUnits="userSpaceOnUse" x1="245" y1="-580" x2="245" y2="-624" >
<stop offset="0" style="stop-color:white;stop-opacity:1.;"/>
<stop offset="1" style="stop-color:#ede9fe;stop-opacity:1.;"/>
</linearGradient>
</defs>
<path fill="url(#l_2)" stroke="#a78bfa" stroke-width="1.5" d="M298.5,-624C298.5,-624 191.5,-624 191.5,-624 185.5,-624 179.5,-618 179.5,-612 179.5,-612 179.5,-592 179.5,-592 179.5,-586 185.5,-580 191.5,-580 191.5,-580 298.5,-580 298.5,-580 304.5,-580 310.5,-586 310.5,-592 310.5,-592 310.5,-612 310.5,-612 310.5,-618 304.5,-624 298.5,-624"/>
<text text-anchor="middle" x="245" y="-605.2" font-family="Arial" font-size="11.00" fill="#0f172a">Validate &amp; normalize</text>
<text text-anchor="middle" x="245" y="-593.2" font-family="Arial" font-size="11.00" fill="#0f172a">URL safety checks</text>
</g>
<!-- url&#45;&gt;validate -->
<g id="edge13" class="edge">
<title>url&#45;&gt;validate</title>
<path fill="none" stroke="#64748b" stroke-width="1.7" d="M100.5,-669.75C100.5,-643.1 100.5,-602 100.5,-602 100.5,-602 171.59,-602 171.59,-602"/>
<polygon fill="#64748b" stroke="#64748b" stroke-width="1.7" points="171.59,-604.63 179.09,-602 171.59,-599.38 171.59,-604.63"/>
</g>
<!-- options -->
<g id="node3" class="node">
<title>options</title>
<defs>
<linearGradient id="l_3" gradientUnits="userSpaceOnUse" x1="429" y1="-670" x2="429" y2="-714" >
<stop offset="0" style="stop-color:white;stop-opacity:1.;"/>
<stop offset="1" style="stop-color:#dbeafe;stop-opacity:1.;"/>
</linearGradient>
</defs>
<path fill="url(#l_3)" stroke="#60a5fa" stroke-width="1.5" d="M502,-714C502,-714 356,-714 356,-714 350,-714 344,-708 344,-702 344,-702 344,-682 344,-682 344,-676 350,-670 356,-670 356,-670 502,-670 502,-670 508,-670 514,-676 514,-682 514,-682 514,-702 514,-702 514,-708 508,-714 502,-714"/>
<text text-anchor="middle" x="429" y="-695.2" font-family="Arial" font-size="11.00" fill="#0f172a">Optional controls</text>
<text text-anchor="middle" x="429" y="-683.2" font-family="Arial" font-size="11.00" fill="#0f172a">demo • timeout • competitors</text>
</g>
<!-- mode&#45;&gt;options -->
<!-- mode&#45;&gt;validate -->
<g id="edge14" class="edge">
<title>mode&#45;&gt;validate</title>
<path fill="none" stroke="#64748b" stroke-width="1.7" d="M245,-669.75C245,-669.75 245,-631.8 245,-631.8"/>
<polygon fill="#64748b" stroke="#64748b" stroke-width="1.7" points="247.63,-631.8 245,-624.3 242.38,-631.8 247.63,-631.8"/>
</g>
<!-- options&#45;&gt;validate -->
<g id="edge15" class="edge">
<title>options&#45;&gt;validate</title>
<path fill="none" stroke="#64748b" stroke-width="1.7" d="M403.75,-669.75C403.75,-643.1 403.75,-602 403.75,-602 403.75,-602 318.45,-602 318.45,-602"/>
<polygon fill="#64748b" stroke="#64748b" stroke-width="1.7" points="318.45,-599.38 310.95,-602 318.45,-604.63 318.45,-599.38"/>
</g>
<!-- workspace -->
<g id="node5" class="node">
<title>workspace</title>
<defs>
<linearGradient id="l_4" gradientUnits="userSpaceOnUse" x1="245" y1="-494" x2="245" y2="-538" >
<stop offset="0" style="stop-color:white;stop-opacity:1.;"/>
<stop offset="1" style="stop-color:#ede9fe;stop-opacity:1.;"/>
</linearGradient>
</defs>
<path fill="url(#l_4)" stroke="#a78bfa" stroke-width="1.5" d="M307,-538C307,-538 183,-538 183,-538 177,-538 171,-532 171,-526 171,-526 171,-506 171,-506 171,-500 177,-494 183,-494 183,-494 307,-494 307,-494 313,-494 319,-500 319,-506 319,-506 319,-526 319,-526 319,-532 313,-538 307,-538"/>
<text text-anchor="middle" x="245" y="-519.2" font-family="Arial" font-size="11.00" fill="#0f172a">Initialize audit</text>
<text text-anchor="middle" x="245" y="-507.2" font-family="Arial" font-size="11.00" fill="#0f172a">ID + isolated workspace</text>
</g>
<!-- validate&#45;&gt;workspace -->
<g id="edge3" class="edge">
<title>validate&#45;&gt;workspace</title>
<path fill="none" stroke="#64748b" stroke-width="1.7" d="M245,-579.85C245,-579.85 245,-545.57 245,-545.57"/>
<polygon fill="#64748b" stroke="#64748b" stroke-width="1.7" points="247.63,-545.57 245,-538.07 242.38,-545.57 247.63,-545.57"/>
</g>
<!-- execution -->
<g id="node6" class="node">
<title>execution</title>
<path fill="#f3e8ff" stroke="#a855f7" stroke-width="1.5" d="M235.02,-445.34C235.02,-445.34 188.98,-414.66 188.98,-414.66 183.99,-411.33 183.99,-404.67 188.98,-401.34 188.98,-401.34 235.02,-370.66 235.02,-370.66 240.01,-367.33 249.99,-367.33 254.98,-370.66 254.98,-370.66 301.02,-401.34 301.02,-401.34 306.01,-404.67 306.01,-411.33 301.02,-414.66 301.02,-414.66 254.98,-445.34 254.98,-445.34 249.99,-448.67 240.01,-448.67 235.02,-445.34"/>
<text text-anchor="middle" x="245" y="-411.2" font-family="Arial" font-size="11.00" fill="#0f172a">Live or</text>
<text text-anchor="middle" x="245" y="-399.2" font-family="Arial" font-size="11.00" fill="#0f172a">demo?</text>
</g>
<!-- workspace&#45;&gt;execution -->
<g id="edge4" class="edge">
<title>workspace&#45;&gt;execution</title>
<path fill="none" stroke="#64748b" stroke-width="1.7" d="M245,-493.88C245,-493.88 245,-459.88 245,-459.88"/>
<polygon fill="#64748b" stroke="#64748b" stroke-width="1.7" points="247.63,-459.88 245,-452.38 242.38,-459.88 247.63,-459.88"/>
</g>
<!-- claude -->
<g id="node7" class="node">
<title>claude</title>
<defs>
<linearGradient id="l_5" gradientUnits="userSpaceOnUse" x1="227" y1="-278" x2="227" y2="-322" >
<stop offset="0" style="stop-color:white;stop-opacity:1.;"/>
<stop offset="1" style="stop-color:#fae8ff;stop-opacity:1.;"/>
</linearGradient>
</defs>
<path fill="url(#l_5)" stroke="#d946ef" stroke-width="1.5" d="M280,-322C280,-322 174,-322 174,-322 168,-322 162,-316 162,-310 162,-310 162,-290 162,-290 162,-284 168,-278 174,-278 174,-278 280,-278 280,-278 286,-278 292,-284 292,-290 292,-290 292,-310 292,-310 292,-316 286,-322 280,-322"/>
<text text-anchor="middle" x="227" y="-303.2" font-family="Arial" font-size="11.00" fill="#0f172a">Live path</text>
<text text-anchor="middle" x="227" y="-291.2" font-family="Arial" font-size="11.00" fill="#0f172a">Claude Code + /geo</text>
</g>
<!-- execution&#45;&gt;claude -->
<g id="edge5" class="edge">
<title>execution&#45;&gt;claude</title>
<path fill="none" stroke="#64748b" stroke-width="1.7" d="M235.5,-370.23C235.5,-370.23 235.5,-329.67 235.5,-329.67"/>
<polygon fill="#64748b" stroke="#64748b" stroke-width="1.7" points="238.13,-329.66 235.5,-322.17 232.88,-329.67 238.13,-329.66"/>
</g>
<!-- demo -->
<g id="node8" class="node">
<title>demo</title>
<defs>
<linearGradient id="l_6" gradientUnits="userSpaceOnUse" x1="393" y1="-278" x2="393" y2="-322" >
<stop offset="0" style="stop-color:white;stop-opacity:1.;"/>
<stop offset="1" style="stop-color:#fce7f3;stop-opacity:1.;"/>
</linearGradient>
</defs>
<path fill="url(#l_6)" stroke="#ec4899" stroke-width="1.5" d="M451.5,-322C451.5,-322 334.5,-322 334.5,-322 328.5,-322 322.5,-316 322.5,-310 322.5,-310 322.5,-290 322.5,-290 322.5,-284 328.5,-278 334.5,-278 334.5,-278 451.5,-278 451.5,-278 457.5,-278 463.5,-284 463.5,-290 463.5,-290 463.5,-310 463.5,-310 463.5,-316 457.5,-322 451.5,-322"/>
<text text-anchor="middle" x="393" y="-303.2" font-family="Arial" font-size="11.00" fill="#0f172a">Demo path</text>
<text text-anchor="middle" x="393" y="-291.2" font-family="Arial" font-size="11.00" fill="#0f172a">Bundled sample report</text>
</g>
<!-- execution&#45;&gt;demo -->
<g id="edge6" class="edge">
<title>execution&#45;&gt;demo</title>
<path fill="none" stroke="#64748b" stroke-width="1.7" d="M301.5,-401.57C301.5,-378.32 301.5,-300 301.5,-300 301.5,-300 314.76,-300 314.76,-300"/>
<polygon fill="#64748b" stroke="#64748b" stroke-width="1.7" points="314.76,-302.63 322.26,-300 314.76,-297.38 314.76,-302.63"/>
</g>
<!-- parse -->
<g id="node9" class="node">
<title>parse</title>
<defs>
<linearGradient id="l_7" gradientUnits="userSpaceOnUse" x1="313" y1="-192" x2="313" y2="-236" >
<stop offset="0" style="stop-color:white;stop-opacity:1.;"/>
<stop offset="1" style="stop-color:#ede9fe;stop-opacity:1.;"/>
</linearGradient>
</defs>
<path fill="url(#l_7)" stroke="#a78bfa" stroke-width="1.5" d="M382,-236C382,-236 244,-236 244,-236 238,-236 232,-230 232,-224 232,-224 232,-204 232,-204 232,-198 238,-192 244,-192 244,-192 382,-192 382,-192 388,-192 394,-198 394,-204 394,-204 394,-224 394,-224 394,-230 388,-236 382,-236"/>
<text text-anchor="middle" x="313" y="-217.2" font-family="Arial" font-size="11.00" fill="#0f172a">Parse report</text>
<text text-anchor="middle" x="313" y="-205.2" font-family="Arial" font-size="11.00" fill="#0f172a">Score • summary • findings</text>
</g>
<!-- claude&#45;&gt;parse -->
<g id="edge7" class="edge">
<title>claude&#45;&gt;parse</title>
<path fill="none" stroke="#64748b" stroke-width="1.7" d="M262,-277.85C262,-277.85 262,-243.57 262,-243.57"/>
<polygon fill="#64748b" stroke="#64748b" stroke-width="1.7" points="264.63,-243.57 262,-236.07 259.38,-243.57 264.63,-243.57"/>
</g>
<!-- demo&#45;&gt;parse -->
<g id="edge8" class="edge">
<title>demo&#45;&gt;parse</title>
<path fill="none" stroke="#64748b" stroke-width="1.7" d="M358.25,-277.85C358.25,-277.85 358.25,-243.57 358.25,-243.57"/>
<polygon fill="#64748b" stroke="#64748b" stroke-width="1.7" points="360.88,-243.57 358.25,-236.07 355.63,-243.57 360.88,-243.57"/>
</g>
<!-- persist -->
<g id="node10" class="node">
<title>persist</title>
<defs>
<linearGradient id="l_8" gradientUnits="userSpaceOnUse" x1="313" y1="-106" x2="313" y2="-150" >
<stop offset="0" style="stop-color:white;stop-opacity:1.;"/>
<stop offset="1" style="stop-color:#ede9fe;stop-opacity:1.;"/>
</linearGradient>
</defs>
<path fill="url(#l_8)" stroke="#a78bfa" stroke-width="1.5" d="M383.5,-150C383.5,-150 242.5,-150 242.5,-150 236.5,-150 230.5,-144 230.5,-138 230.5,-138 230.5,-118 230.5,-118 230.5,-112 236.5,-106 242.5,-106 242.5,-106 383.5,-106 383.5,-106 389.5,-106 395.5,-112 395.5,-118 395.5,-118 395.5,-138 395.5,-138 395.5,-144 389.5,-150 383.5,-150"/>
<text text-anchor="middle" x="313" y="-131.2" font-family="Arial" font-size="11.00" fill="#0f172a">Persist artifacts</text>
<text text-anchor="middle" x="313" y="-119.2" font-family="Arial" font-size="11.00" fill="#0f172a">SQLite • Markdown • JSON</text>
</g>
<!-- parse&#45;&gt;persist -->
<g id="edge9" class="edge">
<title>parse&#45;&gt;persist</title>
<path fill="none" stroke="#64748b" stroke-width="1.7" d="M313,-191.85C313,-191.85 313,-157.57 313,-157.57"/>
<polygon fill="#64748b" stroke="#64748b" stroke-width="1.7" points="315.63,-157.57 313,-150.07 310.38,-157.57 315.63,-157.57"/>
</g>
<!-- score -->
<g id="node11" class="node">
<title>score</title>
<defs>
<linearGradient id="l_9" gradientUnits="userSpaceOnUse" x1="120" y1="-16" x2="120" y2="-60" >
<stop offset="0" style="stop-color:white;stop-opacity:1.;"/>
<stop offset="1" style="stop-color:#d1fae5;stop-opacity:1.;"/>
</linearGradient>
</defs>
<path fill="url(#l_9)" stroke="#34d399" stroke-width="1.5" d="M172.5,-60C172.5,-60 67.5,-60 67.5,-60 61.5,-60 55.5,-54 55.5,-48 55.5,-48 55.5,-28 55.5,-28 55.5,-22 61.5,-16 67.5,-16 67.5,-16 172.5,-16 172.5,-16 178.5,-16 184.5,-22 184.5,-28 184.5,-28 184.5,-48 184.5,-48 184.5,-54 178.5,-60 172.5,-60"/>
<text text-anchor="middle" x="120" y="-41.2" font-family="Arial" font-size="11.00" fill="#0f172a">GEO scorecard</text>
<text text-anchor="middle" x="120" y="-29.2" font-family="Arial" font-size="11.00" fill="#0f172a">Overall + categories</text>
</g>
<!-- persist&#45;&gt;score -->
<g id="edge16" class="edge">
<title>persist&#45;&gt;score</title>
<path fill="none" stroke="#64748b" stroke-width="1.7" d="M230.49,-128C200.24,-128 173.25,-128 173.25,-128 173.25,-128 173.25,-67.75 173.25,-67.75"/>
<polygon fill="#64748b" stroke="#64748b" stroke-width="1.7" points="175.88,-67.75 173.25,-60.25 170.63,-67.75 175.88,-67.75"/>
</g>
<!-- findings -->
<g id="node12" class="node">
<title>findings</title>
<defs>
<linearGradient id="l_10" gradientUnits="userSpaceOnUse" x1="275" y1="-16" x2="275" y2="-60" >
<stop offset="0" style="stop-color:white;stop-opacity:1.;"/>
<stop offset="1" style="stop-color:#d1fae5;stop-opacity:1.;"/>
</linearGradient>
</defs>
<path fill="url(#l_10)" stroke="#34d399" stroke-width="1.5" d="M323,-60C323,-60 227,-60 227,-60 221,-60 215,-54 215,-48 215,-48 215,-28 215,-28 215,-22 221,-16 227,-16 227,-16 323,-16 323,-16 329,-16 335,-22 335,-28 335,-28 335,-48 335,-48 335,-54 329,-60 323,-60"/>
<text text-anchor="middle" x="275" y="-41.2" font-family="Arial" font-size="11.00" fill="#0f172a">Prioritized findings</text>
<text text-anchor="middle" x="275" y="-29.2" font-family="Arial" font-size="11.00" fill="#0f172a">Critical → Low</text>
</g>
<!-- persist&#45;&gt;findings -->
<g id="edge17" class="edge">
<title>persist&#45;&gt;findings</title>
<path fill="none" stroke="#64748b" stroke-width="1.7" d="M282.75,-105.75C282.75,-105.75 282.75,-67.8 282.75,-67.8"/>
<polygon fill="#64748b" stroke="#64748b" stroke-width="1.7" points="285.38,-67.8 282.75,-60.3 280.13,-67.8 285.38,-67.8"/>
</g>
<!-- channels -->
<g id="node13" class="node">
<title>channels</title>
<defs>
<linearGradient id="l_11" gradientUnits="userSpaceOnUse" x1="435" y1="-16" x2="435" y2="-60" >
<stop offset="0" style="stop-color:white;stop-opacity:1.;"/>
<stop offset="1" style="stop-color:#d1fae5;stop-opacity:1.;"/>
</linearGradient>
</defs>
<path fill="url(#l_11)" stroke="#34d399" stroke-width="1.5" d="M493,-60C493,-60 377,-60 377,-60 371,-60 365,-54 365,-48 365,-48 365,-28 365,-28 365,-22 371,-16 377,-16 377,-16 493,-16 493,-16 499,-16 505,-22 505,-28 505,-28 505,-48 505,-48 505,-54 499,-60 493,-60"/>
<text text-anchor="middle" x="435" y="-41.2" font-family="Arial" font-size="11.00" fill="#0f172a">Delivery channels</text>
<text text-anchor="middle" x="435" y="-29.2" font-family="Arial" font-size="11.00" fill="#0f172a">Dashboard • API • CLI</text>
</g>
<!-- persist&#45;&gt;channels -->
<g id="edge18" class="edge">
<title>persist&#45;&gt;channels</title>
<path fill="none" stroke="#64748b" stroke-width="1.7" d="M380.25,-105.75C380.25,-105.75 380.25,-67.8 380.25,-67.8"/>
<polygon fill="#64748b" stroke="#64748b" stroke-width="1.7" points="382.88,-67.8 380.25,-60.3 377.63,-67.8 382.88,-67.8"/>
</g>
<!-- report -->
<g id="node14" class="node">
<title>report</title>
<defs>
<linearGradient id="l_12" gradientUnits="userSpaceOnUse" x1="613" y1="-16" x2="613" y2="-60" >
<stop offset="0" style="stop-color:white;stop-opacity:1.;"/>
<stop offset="1" style="stop-color:#d1fae5;stop-opacity:1.;"/>
</linearGradient>
</defs>
<path fill="url(#l_12)" stroke="#34d399" stroke-width="1.5" d="M679,-60C679,-60 547,-60 547,-60 541,-60 535,-54 535,-48 535,-48 535,-28 535,-28 535,-22 541,-16 547,-16 547,-16 679,-16 679,-16 685,-16 691,-22 691,-28 691,-28 691,-48 691,-48 691,-54 685,-60 679,-60"/>
<text text-anchor="middle" x="613" y="-41.2" font-family="Arial" font-size="11.00" fill="#0f172a">Downloadable artifacts</text>
<text text-anchor="middle" x="613" y="-29.2" font-family="Arial" font-size="11.00" fill="#0f172a">Report + structured result</text>
</g>
<!-- persist&#45;&gt;report -->
<g id="edge19" class="edge">
<title>persist&#45;&gt;report</title>
<path fill="none" stroke="#64748b" stroke-width="1.7" d="M395.77,-128C484.57,-128 613,-128 613,-128 613,-128 613,-67.75 613,-67.75"/>
<polygon fill="#64748b" stroke="#64748b" stroke-width="1.7" points="615.63,-67.75 613,-60.25 610.38,-67.75 615.63,-67.75"/>
</g>
<!-- score&#45;&gt;findings -->
<!-- findings&#45;&gt;channels -->
<!-- channels&#45;&gt;report -->
</g>
</svg>
