<?xml version="1.0" encoding="UTF-8" standalone="no"?>
<!DOCTYPE svg PUBLIC "-//W3C//DTD SVG 1.1//EN"
 "http://www.w3.org/Graphics/SVG/1.1/DTD/svg11.dtd">
<!-- Generated by graphviz version 2.42.4 (0)
 -->
<!-- Title: G Pages: 1 -->
<svg width="597pt" height="1032pt"
 viewBox="0.00 0.00 597.40 1032.43" xmlns="http://www.w3.org/2000/svg" xmlns:xlink="http://www.w3.org/1999/xlink">
<g id="graph0" class="graph" transform="scale(1 1) rotate(0) translate(25.2 1007.23)">
<title>G</title>
<polygon fill="#ffffff" stroke="transparent" points="-25.2,25.2 -25.2,-1007.23 572.2,-1007.23 572.2,25.2 -25.2,25.2"/>
<g id="clust1" class="cluster">
<title>cluster_presentation</title>
<path fill="#eff6ff" stroke="#93c5fd" stroke-width="1.7" d="M87,-814.5C87,-814.5 527,-814.5 527,-814.5 533,-814.5 539,-820.5 539,-826.5 539,-826.5 539,-884.5 539,-884.5 539,-890.5 533,-896.5 527,-896.5 527,-896.5 87,-896.5 87,-896.5 81,-896.5 75,-890.5 75,-884.5 75,-884.5 75,-826.5 75,-826.5 75,-820.5 81,-814.5 87,-814.5"/>
<text text-anchor="middle" x="307" y="-882.1" font-family="Arial Bold" font-size="13.00" fill="#1d4ed8">1 &#160;PRESENTATION</text>
</g>
<g id="clust3" class="cluster">
<title>cluster_orchestration</title>
<path fill="#f5f3ff" stroke="#c4b5fd" stroke-width="1.7" d="M228,-552.5C228,-552.5 416,-552.5 416,-552.5 422,-552.5 428,-558.5 428,-564.5 428,-564.5 428,-794.5 428,-794.5 428,-800.5 422,-806.5 416,-806.5 416,-806.5 228,-806.5 228,-806.5 222,-806.5 216,-800.5 216,-794.5 216,-794.5 216,-564.5 216,-564.5 216,-558.5 222,-552.5 228,-552.5"/>
<text text-anchor="middle" x="322" y="-792.1" font-family="Arial Bold" font-size="13.00" fill="#7c3aed">2 &#160;ORCHESTRATION</text>
</g>
<g id="clust4" class="cluster">
<title>cluster_analysis</title>
<path fill="#fdf2f8" stroke="#f9a8d4" stroke-width="1.7" d="M134,-290.5C134,-290.5 420,-290.5 420,-290.5 426,-290.5 432,-296.5 432,-302.5 432,-302.5 432,-532.5 432,-532.5 432,-538.5 426,-544.5 420,-544.5 420,-544.5 134,-544.5 134,-544.5 128,-544.5 122,-538.5 122,-532.5 122,-532.5 122,-302.5 122,-302.5 122,-296.5 128,-290.5 134,-290.5"/>
<text text-anchor="middle" x="277" y="-530.1" font-family="Arial Bold" font-size="13.00" fill="#be185d">3 &#160;ANALYSIS EXECUTION</text>
</g>
<g id="clust6" class="cluster">
<title>cluster_processing</title>
<path fill="#fffbeb" stroke="#fcd34d" stroke-width="1.7" d="M149,-114.5C149,-114.5 313,-114.5 313,-114.5 319,-114.5 325,-120.5 325,-126.5 325,-126.5 325,-270.5 325,-270.5 325,-276.5 319,-282.5 313,-282.5 313,-282.5 149,-282.5 149,-282.5 143,-282.5 137,-276.5 137,-270.5 137,-270.5 137,-126.5 137,-126.5 137,-120.5 143,-114.5 149,-114.5"/>
<text text-anchor="middle" x="231" y="-268.1" font-family="Arial Bold" font-size="13.00" fill="#b45309">4 &#160;STRUCTURING</text>
</g>
<g id="clust7" class="cluster">
<title>cluster_persistence</title>
<path fill="#ecfdf5" stroke="#6ee7b7" stroke-width="1.7" d="M20,-8C20,-8 515,-8 515,-8 521,-8 527,-14 527,-20 527,-20 527,-94.5 527,-94.5 527,-100.5 521,-106.5 515,-106.5 515,-106.5 20,-106.5 20,-106.5 14,-106.5 8,-100.5 8,-94.5 8,-94.5 8,-20 8,-20 8,-14 14,-8 20,-8"/>
<text text-anchor="middle" x="267.5" y="-92.1" font-family="Arial Bold" font-size="13.00" fill="#047857">5 &#160;PERSISTENCE &amp; DELIVERY</text>
</g>
<!-- user -->
<g id="node1" class="node">
<title>user</title>
<ellipse fill="#0f172a" stroke="#0f172a" stroke-width="1.5" cx="322" cy="-945.26" rx="36.53" ry="36.53"/>
<text text-anchor="middle" x="322" y="-942.46" font-family="Arial Bold" font-size="11.00" fill="white">USER</text>
</g>
<!-- dashboard -->
<g id="node2" class="node">
<title>dashboard</title>
<defs>
<linearGradient id="l_0" gradientUnits="userSpaceOnUse" x1="155" y1="-822.5" x2="155" y2="-866.5" >
<stop offset="0" style="stop-color:white;stop-opacity:1.;"/>
<stop offset="1" style="stop-color:#dbeafe;stop-opacity:1.;"/>
</linearGradient>
</defs>
<path fill="url(#l_0)" stroke="#60a5fa" stroke-width="1.5" d="M215,-866.5C215,-866.5 95,-866.5 95,-866.5 89,-866.5 83,-860.5 83,-854.5 83,-854.5 83,-834.5 83,-834.5 83,-828.5 89,-822.5 95,-822.5 95,-822.5 215,-822.5 215,-822.5 221,-822.5 227,-828.5 227,-834.5 227,-834.5 227,-854.5 227,-854.5 227,-860.5 221,-866.5 215,-866.5"/>
<text text-anchor="middle" x="155" y="-847.7" font-family="Arial" font-size="11.00" fill="#0f172a">Streamlit Dashboard</text>
<text text-anchor="middle" x="155" y="-835.7" font-family="Arial" font-size="11.00" fill="#0f172a">Visual audit experience</text>
</g>
<!-- user&#45;&gt;dashboard -->
<g id="edge10" class="edge">
<title>user&#45;&gt;dashboard</title>
<path fill="none" stroke="#64748b" stroke-width="1.65" d="M284.94,-945C235.74,-945 155,-945 155,-945 155,-945 155,-874.3 155,-874.3"/>
<polygon fill="#64748b" stroke="#64748b" stroke-width="1.65" points="157.63,-874.3 155,-866.8 152.38,-874.3 157.63,-874.3"/>
</g>
<!-- api -->
<g id="node3" class="node">
<title>api</title>
<defs>
<linearGradient id="l_1" gradientUnits="userSpaceOnUse" x1="322" y1="-822.5" x2="322" y2="-866.5" >
<stop offset="0" style="stop-color:white;stop-opacity:1.;"/>
<stop offset="1" style="stop-color:#dbeafe;stop-opacity:1.;"/>
</linearGradient>
</defs>
<path fill="url(#l_1)" stroke="#60a5fa" stroke-width="1.5" d="M370,-866.5C370,-866.5 274,-866.5 274,-866.5 268,-866.5 262,-860.5 262,-854.5 262,-854.5 262,-834.5 262,-834.5 262,-828.5 268,-822.5 274,-822.5 274,-822.5 370,-822.5 370,-822.5 376,-822.5 382,-828.5 382,-834.5 382,-834.5 382,-854.5 382,-854.5 382,-860.5 376,-866.5 370,-866.5"/>
<text text-anchor="middle" x="322" y="-847.7" font-family="Arial" font-size="11.00" fill="#0f172a">FastAPI</text>
<text text-anchor="middle" x="322" y="-835.7" font-family="Arial" font-size="11.00" fill="#0f172a">REST + OpenAPI</text>
</g>
<!-- user&#45;&gt;api -->
<g id="edge11" class="edge">
<title>user&#45;&gt;api</title>
<path fill="none" stroke="#64748b" stroke-width="1.65" d="M322,-908.32C322,-908.32 322,-874.29 322,-874.29"/>
<polygon fill="#64748b" stroke="#64748b" stroke-width="1.65" points="324.63,-874.29 322,-866.79 319.38,-874.29 324.63,-874.29"/>
</g>
<!-- cli -->
<g id="node4" class="node">
<title>cli</title>
<defs>
<linearGradient id="l_2" gradientUnits="userSpaceOnUse" x1="474" y1="-822.5" x2="474" y2="-866.5" >
<stop offset="0" style="stop-color:white;stop-opacity:1.;"/>
<stop offset="1" style="stop-color:#dbeafe;stop-opacity:1.;"/>
</linearGradient>
</defs>
<path fill="url(#l_2)" stroke="#60a5fa" stroke-width="1.5" d="M519,-866.5C519,-866.5 429,-866.5 429,-866.5 423,-866.5 417,-860.5 417,-854.5 417,-854.5 417,-834.5 417,-834.5 417,-828.5 423,-822.5 429,-822.5 429,-822.5 519,-822.5 519,-822.5 525,-822.5 531,-828.5 531,-834.5 531,-834.5 531,-854.5 531,-854.5 531,-860.5 525,-866.5 519,-866.5"/>
<text text-anchor="middle" x="474" y="-847.7" font-family="Arial" font-size="11.00" fill="#0f172a">Python CLI</text>
<text text-anchor="middle" x="474" y="-835.7" font-family="Arial" font-size="11.00" fill="#0f172a">Local automation</text>
</g>
<!-- user&#45;&gt;cli -->
<g id="edge12" class="edge">
<title>user&#45;&gt;cli</title>
<path fill="none" stroke="#64748b" stroke-width="1.65" d="M358.79,-945C403.78,-945 474,-945 474,-945 474,-945 474,-874.3 474,-874.3"/>
<polygon fill="#64748b" stroke="#64748b" stroke-width="1.65" points="476.63,-874.3 474,-866.8 471.38,-874.3 476.63,-874.3"/>
</g>
<!-- dashboard&#45;&gt;api -->
<!-- service -->
<g id="node5" class="node">
<title>service</title>
<defs>
<linearGradient id="l_3" gradientUnits="userSpaceOnUse" x1="322" y1="-732.5" x2="322" y2="-776.5" >
<stop offset="0" style="stop-color:white;stop-opacity:1.;"/>
<stop offset="1" style="stop-color:#ede9fe;stop-opacity:1.;"/>
</linearGradient>
</defs>
<path fill="url(#l_3)" stroke="#a78bfa" stroke-width="1.5" d="M396,-776.5C396,-776.5 248,-776.5 248,-776.5 242,-776.5 236,-770.5 236,-764.5 236,-764.5 236,-744.5 236,-744.5 236,-738.5 242,-732.5 248,-732.5 248,-732.5 396,-732.5 396,-732.5 402,-732.5 408,-738.5 408,-744.5 408,-744.5 408,-764.5 408,-764.5 408,-770.5 402,-776.5 396,-776.5"/>
<text text-anchor="middle" x="322" y="-757.7" font-family="Arial" font-size="11.00" fill="#0f172a">Shared Service Layer</text>
<text text-anchor="middle" x="322" y="-745.7" font-family="Arial" font-size="11.00" fill="#0f172a">Common application contract</text>
</g>
<!-- dashboard&#45;&gt;service -->
<g id="edge13" class="edge">
<title>dashboard&#45;&gt;service</title>
<path fill="none" stroke="#64748b" stroke-width="1.65" d="M227.2,-837C239.82,-837 249,-837 249,-837 249,-837 249,-784.11 249,-784.11"/>
<polygon fill="#64748b" stroke="#64748b" stroke-width="1.65" points="251.63,-784.11 249,-776.61 246.38,-784.11 251.63,-784.11"/>
</g>
<!-- api&#45;&gt;cli -->
<!-- api&#45;&gt;service -->
<g id="edge14" class="edge">
<title>api&#45;&gt;service</title>
<path fill="none" stroke="#64748b" stroke-width="1.65" d="M322,-822.25C322,-822.25 322,-784.3 322,-784.3"/>
<polygon fill="#64748b" stroke="#64748b" stroke-width="1.65" points="324.63,-784.3 322,-776.8 319.38,-784.3 324.63,-784.3"/>
</g>
<!-- cli&#45;&gt;service -->
<g id="edge15" class="edge">
<title>cli&#45;&gt;service</title>
<path fill="none" stroke="#64748b" stroke-width="1.65" d="M416.59,-837C404.33,-837 395,-837 395,-837 395,-837 395,-784.11 395,-784.11"/>
<polygon fill="#64748b" stroke="#64748b" stroke-width="1.65" points="397.63,-784.11 395,-776.61 392.38,-784.11 397.63,-784.11"/>
</g>
<!-- validator -->
<g id="node6" class="node">
<title>validator</title>
<defs>
<linearGradient id="l_4" gradientUnits="userSpaceOnUse" x1="322" y1="-646.5" x2="322" y2="-690.5" >
<stop offset="0" style="stop-color:white;stop-opacity:1.;"/>
<stop offset="1" style="stop-color:#ede9fe;stop-opacity:1.;"/>
</linearGradient>
</defs>
<path fill="url(#l_4)" stroke="#a78bfa" stroke-width="1.5" d="M400,-690.5C400,-690.5 244,-690.5 244,-690.5 238,-690.5 232,-684.5 232,-678.5 232,-678.5 232,-658.5 232,-658.5 232,-652.5 238,-646.5 244,-646.5 244,-646.5 400,-646.5 400,-646.5 406,-646.5 412,-652.5 412,-658.5 412,-658.5 412,-678.5 412,-678.5 412,-684.5 406,-690.5 400,-690.5"/>
<text text-anchor="middle" x="322" y="-671.7" font-family="Arial" font-size="11.00" fill="#0f172a">URL Validator</text>
<text text-anchor="middle" x="322" y="-659.7" font-family="Arial" font-size="11.00" fill="#0f172a">Normalization + safety controls</text>
</g>
<!-- service&#45;&gt;validator -->
<g id="edge3" class="edge">
<title>service&#45;&gt;validator</title>
<path fill="none" stroke="#64748b" stroke-width="1.65" d="M322,-732.35C322,-732.35 322,-698.07 322,-698.07"/>
<polygon fill="#64748b" stroke="#64748b" stroke-width="1.65" points="324.63,-698.07 322,-690.57 319.38,-698.07 324.63,-698.07"/>
</g>
<!-- runner -->
<g id="node7" class="node">
<title>runner</title>
<defs>
<linearGradient id="l_5" gradientUnits="userSpaceOnUse" x1="322" y1="-560.5" x2="322" y2="-604.5" >
<stop offset="0" style="stop-color:white;stop-opacity:1.;"/>
<stop offset="1" style="stop-color:#ede9fe;stop-opacity:1.;"/>
</linearGradient>
</defs>
<path fill="url(#l_5)" stroke="#a78bfa" stroke-width="1.5" d="M408,-604.5C408,-604.5 236,-604.5 236,-604.5 230,-604.5 224,-598.5 224,-592.5 224,-592.5 224,-572.5 224,-572.5 224,-566.5 230,-560.5 236,-560.5 236,-560.5 408,-560.5 408,-560.5 414,-560.5 420,-566.5 420,-572.5 420,-572.5 420,-592.5 420,-592.5 420,-598.5 414,-604.5 408,-604.5"/>
<text text-anchor="middle" x="322" y="-585.7" font-family="Arial" font-size="11.00" fill="#0f172a">Audit Runner</text>
<text text-anchor="middle" x="322" y="-573.7" font-family="Arial" font-size="11.00" fill="#0f172a">Workspace • timeout • subprocess</text>
</g>
<!-- validator&#45;&gt;runner -->
<g id="edge4" class="edge">
<title>validator&#45;&gt;runner</title>
<path fill="none" stroke="#64748b" stroke-width="1.65" d="M322,-646.35C322,-646.35 322,-612.07 322,-612.07"/>
<polygon fill="#64748b" stroke="#64748b" stroke-width="1.65" points="324.63,-612.07 322,-604.57 319.38,-612.07 324.63,-612.07"/>
</g>
<!-- live -->
<g id="node8" class="node">
<title>live</title>
<defs>
<linearGradient id="l_6" gradientUnits="userSpaceOnUse" x1="189" y1="-470.5" x2="189" y2="-514.5" >
<stop offset="0" style="stop-color:white;stop-opacity:1.;"/>
<stop offset="1" style="stop-color:#fce7f3;stop-opacity:1.;"/>
</linearGradient>
</defs>
<path fill="url(#l_6)" stroke="#f472b6" stroke-width="1.5" d="M235.5,-514.5C235.5,-514.5 142.5,-514.5 142.5,-514.5 136.5,-514.5 130.5,-508.5 130.5,-502.5 130.5,-502.5 130.5,-482.5 130.5,-482.5 130.5,-476.5 136.5,-470.5 142.5,-470.5 142.5,-470.5 235.5,-470.5 235.5,-470.5 241.5,-470.5 247.5,-476.5 247.5,-482.5 247.5,-482.5 247.5,-502.5 247.5,-502.5 247.5,-508.5 241.5,-514.5 235.5,-514.5"/>
<text text-anchor="middle" x="189" y="-495.7" font-family="Arial" font-size="11.00" fill="#0f172a">Live path</text>
<text text-anchor="middle" x="189" y="-483.7" font-family="Arial" font-size="11.00" fill="#0f172a">Claude Code CLI</text>
</g>
<!-- runner&#45;&gt;live -->
<g id="edge16" class="edge">
<title>runner&#45;&gt;live</title>
<path fill="none" stroke="#64748b" stroke-width="1.65" d="M235.75,-560.25C235.75,-560.25 235.75,-522.3 235.75,-522.3"/>
<polygon fill="#64748b" stroke="#64748b" stroke-width="1.65" points="238.38,-522.3 235.75,-514.8 233.13,-522.3 238.38,-522.3"/>
</g>
<!-- demo -->
<g id="node11" class="node">
<title>demo</title>
<defs>
<linearGradient id="l_7" gradientUnits="userSpaceOnUse" x1="353" y1="-470.5" x2="353" y2="-514.5" >
<stop offset="0" style="stop-color:white;stop-opacity:1.;"/>
<stop offset="1" style="stop-color:#fce7f3;stop-opacity:1.;"/>
</linearGradient>
</defs>
<path fill="url(#l_7)" stroke="#f472b6" stroke-width="1.5" d="M411.5,-514.5C411.5,-514.5 294.5,-514.5 294.5,-514.5 288.5,-514.5 282.5,-508.5 282.5,-502.5 282.5,-502.5 282.5,-482.5 282.5,-482.5 282.5,-476.5 288.5,-470.5 294.5,-470.5 294.5,-470.5 411.5,-470.5 411.5,-470.5 417.5,-470.5 423.5,-476.5 423.5,-482.5 423.5,-482.5 423.5,-502.5 423.5,-502.5 423.5,-508.5 417.5,-514.5 411.5,-514.5"/>
<text text-anchor="middle" x="353" y="-495.7" font-family="Arial" font-size="11.00" fill="#0f172a">Demo path</text>
<text text-anchor="middle" x="353" y="-483.7" font-family="Arial" font-size="11.00" fill="#0f172a">Bundled sample report</text>
</g>
<!-- runner&#45;&gt;demo -->
<g id="edge17" class="edge">
<title>runner&#45;&gt;demo</title>
<path fill="none" stroke="#64748b" stroke-width="1.65" d="M351.25,-560.25C351.25,-560.25 351.25,-522.3 351.25,-522.3"/>
<polygon fill="#64748b" stroke="#64748b" stroke-width="1.65" points="353.88,-522.3 351.25,-514.8 348.63,-522.3 353.88,-522.3"/>
</g>
<!-- skill -->
<g id="node9" class="node">
<title>skill</title>
<defs>
<linearGradient id="l_8" gradientUnits="userSpaceOnUse" x1="213" y1="-384.5" x2="213" y2="-428.5" >
<stop offset="0" style="stop-color:white;stop-opacity:1.;"/>
<stop offset="1" style="stop-color:#fce7f3;stop-opacity:1.;"/>
</linearGradient>
</defs>
<path fill="url(#l_8)" stroke="#f472b6" stroke-width="1.5" d="M277.5,-428.5C277.5,-428.5 148.5,-428.5 148.5,-428.5 142.5,-428.5 136.5,-422.5 136.5,-416.5 136.5,-416.5 136.5,-396.5 136.5,-396.5 136.5,-390.5 142.5,-384.5 148.5,-384.5 148.5,-384.5 277.5,-384.5 277.5,-384.5 283.5,-384.5 289.5,-390.5 289.5,-396.5 289.5,-396.5 289.5,-416.5 289.5,-416.5 289.5,-422.5 283.5,-428.5 277.5,-428.5"/>
<text text-anchor="middle" x="213" y="-409.7" font-family="Arial" font-size="11.00" fill="#0f172a">/geo Skill</text>
<text text-anchor="middle" x="213" y="-397.7" font-family="Arial" font-size="11.00" fill="#0f172a">GEO specialist reasoning</text>
</g>
<!-- live&#45;&gt;skill -->
<g id="edge5" class="edge">
<title>live&#45;&gt;skill</title>
<path fill="none" stroke="#64748b" stroke-width="1.65" d="M192,-470.35C192,-470.35 192,-436.07 192,-436.07"/>
<polygon fill="#64748b" stroke="#64748b" stroke-width="1.65" points="194.63,-436.07 192,-428.57 189.38,-436.07 194.63,-436.07"/>
</g>
<!-- website -->
<g id="node10" class="node">
<title>website</title>
<defs>
<linearGradient id="l_9" gradientUnits="userSpaceOnUse" x1="215" y1="-298.5" x2="215" y2="-342.5" >
<stop offset="0" style="stop-color:white;stop-opacity:1.;"/>
<stop offset="1" style="stop-color:#fce7f3;stop-opacity:1.;"/>
</linearGradient>
</defs>
<path fill="url(#l_9)" stroke="#f472b6" stroke-width="1.5" d="M284,-342.5C284,-342.5 146,-342.5 146,-342.5 140,-342.5 134,-336.5 134,-330.5 134,-330.5 134,-310.5 134,-310.5 134,-304.5 140,-298.5 146,-298.5 146,-298.5 284,-298.5 284,-298.5 290,-298.5 296,-304.5 296,-310.5 296,-310.5 296,-330.5 296,-330.5 296,-336.5 290,-342.5 284,-342.5"/>
<text text-anchor="middle" x="215" y="-323.7" font-family="Arial" font-size="11.00" fill="#0f172a">Public Website</text>
<text text-anchor="middle" x="215" y="-311.7" font-family="Arial" font-size="11.00" fill="#0f172a">Content + technical signals</text>
</g>
<!-- skill&#45;&gt;website -->
<g id="edge6" class="edge">
<title>skill&#45;&gt;website</title>
<path fill="none" stroke="#64748b" stroke-width="1.65" d="M213,-384.35C213,-384.35 213,-350.07 213,-350.07"/>
<polygon fill="#64748b" stroke="#64748b" stroke-width="1.65" points="215.63,-350.07 213,-342.57 210.38,-350.07 215.63,-350.07"/>
</g>
<!-- parser -->
<g id="node12" class="node">
<title>parser</title>
<defs>
<linearGradient id="l_10" gradientUnits="userSpaceOnUse" x1="231" y1="-208.5" x2="231" y2="-252.5" >
<stop offset="0" style="stop-color:white;stop-opacity:1.;"/>
<stop offset="1" style="stop-color:#fef3c7;stop-opacity:1.;"/>
</linearGradient>
</defs>
<path fill="url(#l_10)" stroke="#fbbf24" stroke-width="1.5" d="M305,-252.5C305,-252.5 157,-252.5 157,-252.5 151,-252.5 145,-246.5 145,-240.5 145,-240.5 145,-220.5 145,-220.5 145,-214.5 151,-208.5 157,-208.5 157,-208.5 305,-208.5 305,-208.5 311,-208.5 317,-214.5 317,-220.5 317,-220.5 317,-240.5 317,-240.5 317,-246.5 311,-252.5 305,-252.5"/>
<text text-anchor="middle" x="231" y="-233.7" font-family="Arial" font-size="11.00" fill="#0f172a">Report Parser</text>
<text text-anchor="middle" x="231" y="-221.7" font-family="Arial" font-size="11.00" fill="#0f172a">Markdown → structured data</text>
</g>
<!-- website&#45;&gt;parser -->
<g id="edge18" class="edge">
<title>website&#45;&gt;parser</title>
<path fill="none" stroke="#64748b" stroke-width="1.65" d="M220.5,-298.25C220.5,-298.25 220.5,-260.3 220.5,-260.3"/>
<polygon fill="#64748b" stroke="#64748b" stroke-width="1.65" points="223.13,-260.3 220.5,-252.8 217.88,-260.3 223.13,-260.3"/>
</g>
<!-- demo&#45;&gt;parser -->
<g id="edge19" class="edge">
<title>demo&#45;&gt;parser</title>
<path fill="none" stroke="#64748b" stroke-width="1.65" d="M306.5,-470.16C306.5,-470.16 306.5,-260.28 306.5,-260.28"/>
<polygon fill="#64748b" stroke="#64748b" stroke-width="1.65" points="309.13,-260.28 306.5,-252.78 303.88,-260.28 309.13,-260.28"/>
</g>
<!-- models -->
<g id="node13" class="node">
<title>models</title>
<defs>
<linearGradient id="l_11" gradientUnits="userSpaceOnUse" x1="231" y1="-122.5" x2="231" y2="-166.5" >
<stop offset="0" style="stop-color:white;stop-opacity:1.;"/>
<stop offset="1" style="stop-color:#fef3c7;stop-opacity:1.;"/>
</linearGradient>
</defs>
<path fill="url(#l_11)" stroke="#fbbf24" stroke-width="1.5" d="M302,-166.5C302,-166.5 160,-166.5 160,-166.5 154,-166.5 148,-160.5 148,-154.5 148,-154.5 148,-134.5 148,-134.5 148,-128.5 154,-122.5 160,-122.5 160,-122.5 302,-122.5 302,-122.5 308,-122.5 314,-128.5 314,-134.5 314,-134.5 314,-154.5 314,-154.5 314,-160.5 308,-166.5 302,-166.5"/>
<text text-anchor="middle" x="231" y="-147.7" font-family="Arial" font-size="11.00" fill="#0f172a">Typed Models</text>
<text text-anchor="middle" x="231" y="-135.7" font-family="Arial" font-size="11.00" fill="#0f172a">Requests • findings • results</text>
</g>
<!-- parser&#45;&gt;models -->
<g id="edge7" class="edge">
<title>parser&#45;&gt;models</title>
<path fill="none" stroke="#64748b" stroke-width="1.65" d="M231,-208.35C231,-208.35 231,-174.07 231,-174.07"/>
<polygon fill="#64748b" stroke="#64748b" stroke-width="1.65" points="233.63,-174.07 231,-166.57 228.38,-174.07 233.63,-174.07"/>
</g>
<!-- sqlite -->
<g id="node14" class="node">
<title>sqlite</title>
<defs>
<linearGradient id="l_12" gradientUnits="userSpaceOnUse" x1="62" y1="-15.75" x2="62" y2="-76.75" >
<stop offset="0" style="stop-color:white;stop-opacity:1.;"/>
<stop offset="1" style="stop-color:#d1fae5;stop-opacity:1.;"/>
</linearGradient>
</defs>
<path fill="url(#l_12)" stroke="#34d399" stroke-width="1.5" d="M108,-71.21C108,-74.27 87.38,-76.75 62,-76.75 36.62,-76.75 16,-74.27 16,-71.21 16,-71.21 16,-21.29 16,-21.29 16,-18.23 36.62,-15.75 62,-15.75 87.38,-15.75 108,-18.23 108,-21.29 108,-21.29 108,-71.21 108,-71.21"/>
<path fill="none" stroke="#34d399" stroke-width="1.5" d="M108,-71.21C108,-68.15 87.38,-65.66 62,-65.66 36.62,-65.66 16,-68.15 16,-71.21"/>
<text text-anchor="middle" x="62" y="-49.45" font-family="Arial" font-size="11.00" fill="#0f172a">SQLite</text>
<text text-anchor="middle" x="62" y="-37.45" font-family="Arial" font-size="11.00" fill="#0f172a">Audit history</text>
</g>
<!-- models&#45;&gt;sqlite -->
<g id="edge20" class="edge">
<title>models&#45;&gt;sqlite</title>
<path fill="none" stroke="#64748b" stroke-width="1.65" d="M147.89,-144C119.84,-144 95.5,-144 95.5,-144 95.5,-144 95.5,-83.34 95.5,-83.34"/>
<polygon fill="#64748b" stroke="#64748b" stroke-width="1.65" points="98.13,-83.34 95.5,-75.84 92.88,-83.34 98.13,-83.34"/>
</g>
<!-- files -->
<g id="node15" class="node">
<title>files</title>
<defs>
<linearGradient id="l_13" gradientUnits="userSpaceOnUse" x1="231" y1="-24.25" x2="231" y2="-72.25" >
<stop offset="0" style="stop-color:white;stop-opacity:1.;"/>
<stop offset="1" style="stop-color:#d1fae5;stop-opacity:1.;"/>
</linearGradient>
</defs>
<polygon fill="url(#l_13)" stroke="#34d399" stroke-width="1.5" points="318.5,-68.25 315.5,-72.25 294.5,-72.25 291.5,-68.25 143.5,-68.25 143.5,-24.25 318.5,-24.25 318.5,-68.25"/>
<text text-anchor="middle" x="231" y="-49.45" font-family="Arial" font-size="11.00" fill="#0f172a">Per&#45;run Artifacts</text>
<text text-anchor="middle" x="231" y="-37.45" font-family="Arial" font-size="11.00" fill="#0f172a">Request • raw • report • result</text>
</g>
<!-- models&#45;&gt;files -->
<g id="edge21" class="edge">
<title>models&#45;&gt;files</title>
<path fill="none" stroke="#64748b" stroke-width="1.65" d="M231,-122.21C231,-122.21 231,-75.96 231,-75.96"/>
<polygon fill="#64748b" stroke="#64748b" stroke-width="1.65" points="233.63,-75.96 231,-68.46 228.38,-75.96 233.63,-75.96"/>
</g>
<!-- result -->
<g id="node16" class="node">
<title>result</title>
<defs>
<linearGradient id="l_14" gradientUnits="userSpaceOnUse" x1="436" y1="-24.25" x2="436" y2="-68.25" >
<stop offset="0" style="stop-color:white;stop-opacity:1.;"/>
<stop offset="1" style="stop-color:#d1fae5;stop-opacity:1.;"/>
</linearGradient>
</defs>
<path fill="url(#l_14)" stroke="#34d399" stroke-width="1.5" d="M506.5,-68.25C506.5,-68.25 365.5,-68.25 365.5,-68.25 359.5,-68.25 353.5,-62.25 353.5,-56.25 353.5,-56.25 353.5,-36.25 353.5,-36.25 353.5,-30.25 359.5,-24.25 365.5,-24.25 365.5,-24.25 506.5,-24.25 506.5,-24.25 512.5,-24.25 518.5,-30.25 518.5,-36.25 518.5,-36.25 518.5,-56.25 518.5,-56.25 518.5,-62.25 512.5,-68.25 506.5,-68.25"/>
<text text-anchor="middle" x="436" y="-49.45" font-family="Arial" font-size="11.00" fill="#0f172a">Structured Audit Result</text>
<text text-anchor="middle" x="436" y="-37.45" font-family="Arial" font-size="11.00" fill="#0f172a">Scores + prioritized findings</text>
</g>
<!-- models&#45;&gt;result -->
<g id="edge22" class="edge">
<title>models&#45;&gt;result</title>
<path fill="none" stroke="#64748b" stroke-width="1.65" d="M314.36,-144C352.14,-144 388.5,-144 388.5,-144 388.5,-144 388.5,-75.93 388.5,-75.93"/>
<polygon fill="#64748b" stroke="#64748b" stroke-width="1.65" points="391.13,-75.93 388.5,-68.43 385.88,-75.93 391.13,-75.93"/>
</g>
<!-- sqlite&#45;&gt;files -->
<!-- files&#45;&gt;result -->
</g>
</svg>
